<?xml version="1.0" encoding="UTF-8"?>
<svg id="Layer_1" data-name="Layer 1" xmlns="http://www.w3.org/2000/svg" viewBox="0 0 33.58 32">
  <defs>
    <style>
      .cls-1 {
        fill: #7747ff;
      }
    </style>
  </defs>
  <path class="cls-1" d="M33.58,19.04v8.33c0,.29-.16.56-.41.71l-6.6,3.8c-.55.32-1.24-.08-1.23-.72l.05-7.4c0-.3-.16-.57-.41-.72l-7.41-4.24c-.26-.15-.42-.42-.41-.72l.05-8.36c0-.3-.16-.57-.41-.72l-6.57-3.78c-.55-.32-.55-1.11,0-1.42L16.65.11c.25-.14.56-.15.81,0l7.51,4.2c.26.15.42.42.42.72v8.32c0,.29.15.56.41.71l7.37,4.28c.25.15.41.42.41.71h0Z"/>
  <path class="cls-1" d="M.41,19.26l6.55,3.79c.26.15.41.42.41.72l-.05,7.4c0,.63.68,1.03,1.23.72l6.57-3.8c.25-.15.41-.42.41-.71v-8.32c0-.3-.16-.57-.42-.72l-7.48-4.21c-.25-.14-.56-.14-.81,0L.41,17.84c-.55.32-.55,1.11,0,1.42Z"/>
</svg>