<svg width="256" height="256" viewBox="0 0 256 256" fill="none" xmlns="http://www.w3.org/2000/svg">
<rect width="256" height="256" fill="white"/>
<path fill-rule="evenodd" clip-rule="evenodd" d="M128.092 28.3546C128.092 28.5496 127.454 28.7092 126.674 28.7092C125.894 28.7092 125.255 28.8688 125.255 29.0638C125.255 29.2589 124.777 29.4184 124.192 29.4184C123.607 29.4184 123.128 29.578 123.128 29.773C123.128 29.9681 122.844 30.1277 122.497 30.1277C122.15 30.1277 121.636 30.4468 121.355 30.8369C121.074 31.227 120.635 31.5461 120.38 31.5461C119.779 31.5461 116.745 34.5798 116.745 35.1817C116.745 35.4362 116.426 35.875 116.036 36.156C115.646 36.4371 115.326 36.9512 115.326 37.2979C115.326 37.6454 115.167 37.9291 114.972 37.9291C114.777 37.9291 114.617 38.2482 114.617 38.6383C114.617 39.0284 114.458 39.3475 114.263 39.3475C114.068 39.3475 113.908 39.6667 113.908 40.0567C113.908 40.4468 113.748 40.766 113.553 40.766C113.358 40.766 113.199 41.0851 113.199 41.4752C113.199 41.8653 113.039 42.1844 112.844 42.1844C112.649 42.1844 112.49 42.5035 112.49 42.8936C112.49 43.2837 112.33 43.6028 112.135 43.6028C111.94 43.6028 111.78 43.922 111.78 44.3121C111.78 44.7021 111.621 45.0213 111.426 45.0213C111.231 45.0213 111.071 45.3404 111.071 45.7305C111.071 46.1206 110.912 46.4397 110.716 46.4397C110.521 46.4397 110.362 46.7589 110.362 47.1489C110.362 47.539 110.202 47.8582 110.007 47.8582C109.812 47.8582 109.653 48.1773 109.653 48.5674C109.653 48.9575 109.493 49.2766 109.298 49.2766C109.103 49.2766 108.943 49.5957 108.943 49.9858C108.943 50.3759 108.784 50.695 108.589 50.695C108.394 50.695 108.234 51.0142 108.234 51.4043C108.234 51.7943 108.075 52.1135 107.88 52.1135C107.685 52.1135 107.525 52.4326 107.525 52.8227C107.525 53.2128 107.365 53.5319 107.17 53.5319C106.975 53.5319 106.816 53.8511 106.816 54.2411C106.816 54.6312 106.656 54.9504 106.461 54.9504C106.266 54.9504 106.107 55.2695 106.107 55.6596C106.107 56.0496 105.947 56.3688 105.752 56.3688C105.557 56.3688 105.397 56.6879 105.397 57.078C105.397 57.4681 105.238 57.7872 105.043 57.7872C104.848 57.7872 104.688 58.1064 104.688 58.4965C104.688 58.8865 104.529 59.2057 104.334 59.2057C104.138 59.2057 103.979 59.5248 103.979 59.9149C103.979 60.305 103.819 60.6241 103.624 60.6241C103.429 60.6241 103.27 60.9433 103.27 61.3333C103.27 61.7234 103.11 62.0426 102.915 62.0426C102.72 62.0426 102.56 62.3617 102.56 62.7518C102.56 63.1418 102.401 63.461 102.206 63.461C102.011 63.461 101.851 63.7801 101.851 64.1702C101.851 64.5603 101.692 64.8794 101.497 64.8794C101.302 64.8794 101.142 65.1986 101.142 65.5887C101.142 65.9787 100.982 66.2979 100.787 66.2979C100.592 66.2979 100.433 66.617 100.433 67.0071C100.433 67.3972 100.273 67.7163 100.078 67.7163C99.8831 67.7163 99.7236 68.0355 99.7236 68.4255C99.7236 68.8156 99.564 69.1348 99.369 69.1348C99.1739 69.1348 99.0144 69.4539 99.0144 69.844C99.0144 70.234 98.8548 70.5532 98.6597 70.5532C98.4647 70.5532 98.3051 70.8723 98.3051 71.2624C98.3051 71.6525 98.1456 71.9716 97.9505 71.9716C97.7555 71.9716 97.5959 72.2908 97.5959 72.6809C97.5959 73.0709 97.4363 73.3901 97.2413 73.3901C97.0463 73.3901 96.8867 73.7092 96.8867 74.0993C96.8867 74.4894 96.7271 74.8085 96.5321 74.8085C96.3371 74.8085 96.1775 75.1277 96.1775 75.5177C96.1775 75.9078 96.0179 76.227 95.8229 76.227C95.6278 76.227 95.4683 76.5461 95.4683 76.9362C95.4683 77.3262 95.3087 77.6454 95.1136 77.6454C94.9186 77.6454 94.759 77.9645 94.759 78.3546C94.759 78.7447 94.5995 79.0638 94.4044 79.0638C94.2094 79.0638 94.0498 79.383 94.0498 79.773C94.0498 80.1631 93.8902 80.4823 93.6952 80.4823C93.5002 80.4823 93.3406 80.8014 93.3406 81.1915C93.3406 81.5816 93.181 81.9007 92.986 81.9007C92.791 81.9007 92.6314 82.2199 92.6314 82.6099C92.6314 83 92.4718 83.3191 92.2768 83.3191C92.0817 83.3191 91.9222 83.9575 91.9222 84.7376V86.156H146.177C182.111 86.156 200.433 86.0363 200.433 85.8014C200.433 85.6064 200.912 85.4468 201.497 85.4468C202.082 85.4468 202.56 85.2872 202.56 85.0922C202.56 84.8972 202.88 84.7376 203.27 84.7376C203.66 84.7376 203.979 84.578 203.979 84.383C203.979 84.1879 204.234 84.0284 204.546 84.0284C204.857 84.0284 205.56 83.5497 206.107 82.9645C206.654 82.3794 207.356 81.9007 207.667 81.9007C207.979 81.9007 208.234 81.6454 208.234 81.3333C208.234 81.0222 208.713 80.32 209.298 79.773C209.883 79.2261 210.362 78.5239 210.362 78.2128C210.362 77.9007 210.521 77.6454 210.716 77.6454C210.912 77.6454 211.071 77.3262 211.071 76.9362C211.071 76.5461 211.231 76.227 211.426 76.227C211.621 76.227 211.78 75.9078 211.78 75.5177C211.78 75.1277 211.94 74.8085 212.135 74.8085C212.33 74.8085 212.49 74.4894 212.49 74.0993C212.49 73.7092 212.649 73.3901 212.844 73.3901C213.039 73.3901 213.199 73.0709 213.199 72.6809C213.199 72.2908 213.358 71.9716 213.553 71.9716C213.748 71.9716 213.908 71.6525 213.908 71.2624C213.908 70.8723 214.068 70.5532 214.263 70.5532C214.458 70.5532 214.617 70.234 214.617 69.844C214.617 69.4539 214.777 69.1348 214.972 69.1348C215.167 69.1348 215.326 68.8156 215.326 68.4255C215.326 68.0355 215.486 67.7163 215.681 67.7163C215.876 67.7163 216.036 67.3972 216.036 67.0071C216.036 66.617 216.195 66.2979 216.39 66.2979C216.585 66.2979 216.745 65.9787 216.745 65.5887C216.745 65.1986 216.904 64.8794 217.099 64.8794C217.294 64.8794 217.454 64.5603 217.454 64.1702C217.454 63.7801 217.614 63.461 217.809 63.461C218.004 63.461 218.163 63.1418 218.163 62.7518C218.163 62.3617 218.323 62.0426 218.518 62.0426C218.713 62.0426 218.872 61.7234 218.872 61.3333C218.872 60.9433 219.032 60.6241 219.227 60.6241C219.422 60.6241 219.582 60.305 219.582 59.9149C219.582 59.5248 219.741 59.2057 219.936 59.2057C220.131 59.2057 220.291 58.8865 220.291 58.4965C220.291 58.1064 220.45 57.7872 220.646 57.7872C220.841 57.7872 221 57.4681 221 57.078C221 56.6879 221.16 56.3688 221.355 56.3688C221.55 56.3688 221.709 56.0496 221.709 55.6596C221.709 55.2695 221.869 54.9504 222.064 54.9504C222.259 54.9504 222.419 54.6312 222.419 54.2411C222.419 53.8511 222.578 53.5319 222.773 53.5319C222.968 53.5319 223.128 53.2128 223.128 52.8227C223.128 52.4326 223.287 52.1135 223.482 52.1135C223.677 52.1135 223.837 51.7943 223.837 51.4043C223.837 51.0142 223.997 50.695 224.192 50.695C224.387 50.695 224.546 50.3759 224.546 49.9858C224.546 49.5957 224.706 49.2766 224.901 49.2766C225.096 49.2766 225.255 48.9575 225.255 48.5674C225.255 48.1773 225.415 47.8582 225.61 47.8582C225.805 47.8582 225.965 47.539 225.965 47.1489C225.965 46.7589 226.124 46.4397 226.319 46.4397C226.514 46.4397 226.674 46.1206 226.674 45.7305C226.674 45.3404 226.833 45.0213 227.029 45.0213C227.224 45.0213 227.383 44.7021 227.383 44.3121C227.383 43.922 227.543 43.6028 227.738 43.6028C227.933 43.6028 228.092 43.2837 228.092 42.8936C228.092 42.5035 228.252 42.1844 228.447 42.1844C228.642 42.1844 228.802 41.8653 228.802 41.4752C228.802 41.0851 228.961 40.766 229.156 40.766C229.351 40.766 229.511 40.4468 229.511 40.0567C229.511 39.6667 229.67 39.3475 229.865 39.3475C230.06 39.3475 230.22 39.0284 230.22 38.6383C230.22 38.2482 230.38 37.9291 230.575 37.9291C230.77 37.9291 230.929 37.6099 230.929 37.2199C230.929 36.8298 231.089 36.5106 231.284 36.5106C231.479 36.5106 231.638 36.1915 231.638 35.8014C231.638 35.4114 231.798 35.0922 231.993 35.0922C232.188 35.0922 232.348 34.7731 232.348 34.383C232.348 33.9929 232.507 33.6738 232.702 33.6738C232.897 33.6738 233.057 33.3546 233.057 32.9645C233.057 32.5745 233.216 32.2553 233.412 32.2553C233.607 32.2553 233.766 31.9362 233.766 31.5461C233.766 31.156 233.926 30.8369 234.121 30.8369C234.316 30.8369 234.475 30.1986 234.475 29.4184V28H181.284C146.06 28 128.092 28.1197 128.092 28.3546ZM69.9363 170.199C69.9363 170.394 69.4576 170.553 68.8725 170.553C68.2874 170.553 67.8087 170.713 67.8087 170.908C67.8087 171.103 67.3654 171.262 66.8229 171.262C66.244 171.262 65.627 171.555 65.3264 171.972C65.0454 172.362 64.6074 172.681 64.3539 172.681C63.7528 172.681 60.0073 176.426 60.0073 177.027C60.0073 177.281 59.6881 177.719 59.298 178C58.908 178.281 58.5888 178.795 58.5888 179.142C58.5888 179.489 58.4292 179.773 58.2342 179.773C58.0392 179.773 57.8796 180.092 57.8796 180.482C57.8796 180.872 57.72 181.191 57.525 181.191C57.33 181.191 57.1704 181.511 57.1704 181.901C57.1704 182.291 57.0108 182.61 56.8158 182.61C56.6207 182.61 56.4612 182.929 56.4612 183.319C56.4612 183.709 56.3016 184.028 56.1066 184.028C55.9115 184.028 55.7519 184.348 55.7519 184.738C55.7519 185.128 55.5924 185.447 55.3973 185.447C55.2023 185.447 55.0427 185.766 55.0427 186.156C55.0427 186.546 54.8831 186.865 54.6881 186.865C54.4931 186.865 54.3335 187.184 54.3335 187.574C54.3335 187.965 54.1739 188.284 53.9789 188.284C53.7839 188.284 53.6243 188.603 53.6243 188.993C53.6243 189.383 53.4647 189.702 53.2697 189.702C53.0746 189.702 52.9151 190.021 52.9151 190.411C52.9151 190.801 52.7555 191.121 52.5605 191.121C52.3654 191.121 52.2058 191.44 52.2058 191.83C52.2058 192.22 52.0463 192.539 51.8512 192.539C51.6562 192.539 51.4966 192.858 51.4966 193.248C51.4966 193.638 51.3371 193.957 51.142 193.957C50.947 193.957 50.7874 194.277 50.7874 194.667C50.7874 195.057 50.6278 195.376 50.4328 195.376C50.2378 195.376 50.0782 195.695 50.0782 196.085C50.0782 196.475 49.9186 196.794 49.7236 196.794C49.5285 196.794 49.369 197.113 49.369 197.504C49.369 197.894 49.2094 198.213 49.0144 198.213C48.8193 198.213 48.6598 198.532 48.6598 198.922C48.6598 199.312 48.5002 199.631 48.3051 199.631C48.1101 199.631 47.9505 199.95 47.9505 200.34C47.9505 200.73 47.791 201.05 47.5959 201.05C47.4009 201.05 47.2413 201.369 47.2413 201.759C47.2413 202.149 47.0817 202.468 46.8867 202.468C46.6917 202.468 46.5321 202.787 46.5321 203.177C46.5321 203.567 46.3725 203.887 46.1775 203.887C45.9824 203.887 45.8229 204.206 45.8229 204.596C45.8229 204.986 45.6633 205.305 45.4683 205.305C45.2732 205.305 45.1137 205.624 45.1137 206.014C45.1137 206.404 44.9541 206.723 44.759 206.723C44.564 206.723 44.4044 207.043 44.4044 207.433C44.4044 207.823 44.2449 208.142 44.0498 208.142C43.8548 208.142 43.6952 208.461 43.6952 208.851C43.6952 209.241 43.5356 209.56 43.3406 209.56C43.1456 209.56 42.986 209.879 42.986 210.27C42.986 210.66 42.8264 210.979 42.6314 210.979C42.4363 210.979 42.2768 211.298 42.2768 211.688C42.2768 212.078 42.1172 212.397 41.9222 212.397C41.7271 212.397 41.5676 212.716 41.5676 213.106C41.5676 213.496 41.408 213.816 41.2129 213.816C41.0179 213.816 40.8583 214.135 40.8583 214.525C40.8583 214.915 40.6988 215.234 40.5037 215.234C40.3087 215.234 40.1491 215.553 40.1491 215.943C40.1491 216.333 39.9895 216.652 39.7945 216.652C39.5995 216.652 39.4399 216.972 39.4399 217.362C39.4399 217.752 39.2803 218.071 39.0853 218.071C38.8902 218.071 38.7307 218.39 38.7307 218.78C38.7307 219.17 38.5711 219.489 38.3761 219.489C38.181 219.489 38.0215 219.808 38.0215 220.199C38.0215 220.589 37.8619 220.908 37.6668 220.908C37.4718 220.908 37.3122 221.227 37.3122 221.617C37.3122 222.007 37.1527 222.326 36.9576 222.326C36.7626 222.326 36.603 222.645 36.603 223.035C36.603 223.426 36.4434 223.745 36.2484 223.745C36.0534 223.745 35.8938 224.064 35.8938 224.454C35.8938 224.844 35.7342 225.163 35.5392 225.163C35.3441 225.163 35.1846 225.801 35.1846 226.582V228H89.0853C124.783 228 142.986 227.88 142.986 227.645C142.986 227.45 143.624 227.291 144.404 227.291C145.185 227.291 145.823 227.131 145.823 226.936C145.823 226.741 146.142 226.582 146.532 226.582C146.922 226.582 147.241 226.422 147.241 226.227C147.241 226.032 147.483 225.872 147.779 225.872C148.075 225.872 149.511 224.678 150.97 223.218C152.43 221.759 153.624 220.323 153.624 220.027C153.624 219.731 153.784 219.489 153.979 219.489C154.174 219.489 154.333 219.17 154.333 218.78C154.333 218.39 154.493 218.071 154.688 218.071C154.883 218.071 155.043 217.752 155.043 217.362C155.043 216.972 155.202 216.652 155.397 216.652C155.592 216.652 155.752 216.333 155.752 215.943C155.752 215.553 155.912 215.234 156.107 215.234C156.302 215.234 156.461 214.915 156.461 214.525C156.461 214.135 156.621 213.816 156.816 213.816C157.011 213.816 157.17 213.496 157.17 213.106C157.17 212.716 157.33 212.397 157.525 212.397C157.72 212.397 157.88 212.078 157.88 211.688C157.88 211.298 158.039 210.979 158.234 210.979C158.429 210.979 158.589 210.66 158.589 210.27C158.589 209.879 158.748 209.56 158.943 209.56C159.138 209.56 159.298 209.241 159.298 208.851C159.298 208.461 159.458 208.142 159.653 208.142C159.848 208.142 160.007 207.823 160.007 207.433C160.007 207.043 160.167 206.723 160.362 206.723C160.557 206.723 160.716 206.404 160.716 206.014C160.716 205.624 160.876 205.305 161.071 205.305C161.266 205.305 161.426 204.986 161.426 204.596C161.426 204.206 161.585 203.887 161.78 203.887C161.975 203.887 162.135 203.567 162.135 203.177C162.135 202.787 162.294 202.468 162.49 202.468C162.685 202.468 162.844 202.149 162.844 201.759C162.844 201.369 163.004 201.05 163.199 201.05C163.394 201.05 163.553 200.73 163.553 200.34C163.553 199.95 163.713 199.631 163.908 199.631C164.103 199.631 164.263 199.312 164.263 198.922C164.263 198.532 164.422 198.213 164.617 198.213C164.812 198.213 164.972 197.894 164.972 197.504C164.972 197.113 165.131 196.794 165.326 196.794C165.521 196.794 165.681 196.475 165.681 196.085C165.681 195.695 165.841 195.376 166.036 195.376C166.231 195.376 166.39 195.057 166.39 194.667C166.39 194.277 166.55 193.957 166.745 193.957C166.94 193.957 167.099 193.638 167.099 193.248C167.099 192.858 167.259 192.539 167.454 192.539C167.649 192.539 167.809 192.22 167.809 191.83C167.809 191.44 167.968 191.121 168.163 191.121C168.358 191.121 168.518 190.801 168.518 190.411C168.518 190.021 168.677 189.702 168.872 189.702C169.068 189.702 169.227 189.383 169.227 188.993C169.227 188.603 169.387 188.284 169.582 188.284C169.777 188.284 169.936 187.965 169.936 187.574C169.936 187.184 170.096 186.865 170.291 186.865C170.486 186.865 170.646 186.546 170.646 186.156C170.646 185.766 170.805 185.447 171 185.447C171.195 185.447 171.355 185.128 171.355 184.738C171.355 184.348 171.514 184.028 171.709 184.028C171.904 184.028 172.064 183.709 172.064 183.319C172.064 182.929 172.224 182.61 172.419 182.61C172.614 182.61 172.773 182.291 172.773 181.901C172.773 181.511 172.933 181.191 173.128 181.191C173.323 181.191 173.482 180.872 173.482 180.482C173.482 180.092 173.642 179.773 173.837 179.773C174.032 179.773 174.192 179.454 174.192 179.064C174.192 178.674 174.351 178.355 174.546 178.355C174.741 178.355 174.901 178.035 174.901 177.645C174.901 177.255 175.06 176.936 175.255 176.936C175.451 176.936 175.61 176.617 175.61 176.227C175.61 175.837 175.77 175.518 175.965 175.518C176.16 175.518 176.319 175.199 176.319 174.809C176.319 174.418 176.479 174.099 176.674 174.099C176.869 174.099 177.029 173.78 177.029 173.39C177.029 173 177.188 172.681 177.383 172.681C177.578 172.681 177.738 172.043 177.738 171.262V169.844H123.837C88.1394 169.844 69.9363 169.964 69.9363 170.199Z" fill="#5C04CC"/>
<path fill-rule="evenodd" clip-rule="evenodd" d="M56.461 99.2765C56.461 99.4715 55.8227 99.6311 55.0426 99.6311C54.2624 99.6311 53.6241 99.7907 53.6241 99.9857C53.6241 100.181 53.305 100.34 52.9149 100.34C52.5248 100.34 52.2057 100.5 52.2057 100.695C52.2057 100.89 51.8865 101.05 51.4965 101.05C51.1064 101.05 50.7872 101.209 50.7872 101.404C50.7872 101.599 50.5443 101.759 50.2473 101.759C49.9512 101.759 48.8342 102.633 47.7651 103.701C46.6968 104.77 45.8227 105.887 45.8227 106.183C45.8227 106.48 45.6631 106.723 45.4681 106.723C45.273 106.723 45.1135 107.042 45.1135 107.433C45.1135 107.823 44.9539 108.142 44.7589 108.142C44.5638 108.142 44.4043 108.461 44.4043 108.851C44.4043 109.241 44.2447 109.56 44.0496 109.56C43.8546 109.56 43.695 109.879 43.695 110.269C43.695 110.659 43.5355 110.979 43.3404 110.979C43.1454 110.979 42.9858 111.298 42.9858 111.688C42.9858 112.078 42.8262 112.397 42.6312 112.397C42.4362 112.397 42.2766 112.716 42.2766 113.106C42.2766 113.496 42.117 113.815 41.922 113.815C41.7269 113.815 41.5674 114.135 41.5674 114.525C41.5674 114.915 41.4078 115.234 41.2128 115.234C41.0177 115.234 40.8582 115.553 40.8582 115.943C40.8582 116.333 40.6986 116.652 40.5035 116.652C40.3085 116.652 40.1489 116.972 40.1489 117.362C40.1489 117.752 39.9894 118.071 39.7943 118.071C39.5993 118.071 39.4397 118.39 39.4397 118.78C39.4397 119.17 39.2801 119.489 39.0851 119.489C38.8901 119.489 38.7305 119.808 38.7305 120.198C38.7305 120.589 38.5709 120.908 38.3759 120.908C38.1808 120.908 38.0213 121.227 38.0213 121.617C38.0213 122.007 37.8617 122.326 37.6667 122.326C37.4716 122.326 37.3121 122.645 37.3121 123.035C37.3121 123.425 37.1525 123.745 36.9574 123.745C36.7624 123.745 36.6028 124.064 36.6028 124.454C36.6028 124.844 36.4433 125.163 36.2482 125.163C36.0532 125.163 35.8936 125.482 35.8936 125.872C35.8936 126.262 35.734 126.581 35.539 126.581C35.344 126.581 35.1844 126.901 35.1844 127.291C35.1844 127.681 35.0248 128 34.8298 128C34.6348 128 34.4752 128.319 34.4752 128.709C34.4752 129.099 34.3156 129.418 34.1206 129.418C33.9255 129.418 33.766 129.737 33.766 130.128C33.766 130.518 33.6064 130.837 33.4113 130.837C33.2163 130.837 33.0567 131.156 33.0567 131.546C33.0567 131.936 32.8972 132.255 32.7021 132.255C32.5071 132.255 32.3475 132.574 32.3475 132.964C32.3475 133.354 32.1879 133.674 31.9929 133.674C31.7979 133.674 31.6383 133.993 31.6383 134.383C31.6383 134.773 31.4787 135.092 31.2837 135.092C31.0887 135.092 30.9291 135.411 30.9291 135.801C30.9291 136.191 30.7695 136.511 30.5745 136.511C30.3794 136.511 30.2199 136.83 30.2199 137.22C30.2199 137.61 30.0603 137.929 29.8652 137.929C29.6702 137.929 29.5106 138.248 29.5106 138.638C29.5106 139.028 29.3511 139.347 29.156 139.347C28.961 139.347 28.8014 139.667 28.8014 140.057C28.8014 140.447 28.6418 140.766 28.4468 140.766C28.2518 140.766 28.0922 141.085 28.0922 141.475C28.0922 141.865 27.9326 142.184 27.7376 142.184C27.5426 142.184 27.383 142.503 27.383 142.893C27.383 143.284 27.2234 143.603 27.0284 143.603C26.8333 143.603 26.6738 143.922 26.6738 144.312C26.6738 144.702 26.5142 145.021 26.3191 145.021C26.1241 145.021 25.9645 145.34 25.9645 145.73C25.9645 146.12 25.805 146.44 25.6099 146.44C25.4149 146.44 25.2553 146.759 25.2553 147.149C25.2553 147.539 25.0957 147.858 24.9007 147.858C24.7057 147.858 24.5461 148.177 24.5461 148.567C24.5461 148.957 24.3865 149.276 24.1915 149.276C23.9965 149.276 23.8369 149.596 23.8369 149.986C23.8369 150.376 23.6773 150.695 23.4823 150.695C23.2872 150.695 23.1277 151.014 23.1277 151.404C23.1277 151.794 22.9681 152.113 22.773 152.113C22.578 152.113 22.4184 152.433 22.4184 152.823C22.4184 153.213 22.2589 153.532 22.0638 153.532C21.8688 153.532 21.7092 153.851 21.7092 154.241C21.7092 154.631 21.5496 154.95 21.3546 154.95C21.1596 154.95 21 155.429 21 156.014V157.078H75.2553C111.189 157.078 129.511 156.958 129.511 156.723C129.511 156.528 129.989 156.369 130.574 156.369C131.16 156.369 131.638 156.209 131.638 156.014C131.638 155.819 131.957 155.659 132.348 155.659C132.738 155.659 133.057 155.5 133.057 155.305C133.057 155.11 133.312 154.95 133.624 154.95C133.935 154.95 134.637 154.472 135.184 153.886C135.731 153.301 136.434 152.823 136.745 152.823C137.057 152.823 137.312 152.567 137.312 152.255C137.312 151.944 137.791 151.242 138.376 150.695C138.961 150.148 139.44 149.446 139.44 149.135C139.44 148.823 139.599 148.567 139.794 148.567C139.989 148.567 140.149 148.248 140.149 147.858C140.149 147.468 140.308 147.149 140.504 147.149C140.699 147.149 140.858 146.83 140.858 146.44C140.858 146.05 141.018 145.73 141.213 145.73C141.408 145.73 141.567 145.411 141.567 145.021C141.567 144.631 141.727 144.312 141.922 144.312C142.117 144.312 142.277 143.993 142.277 143.603C142.277 143.213 142.436 142.893 142.631 142.893C142.826 142.893 142.986 142.574 142.986 142.184C142.986 141.794 143.145 141.475 143.34 141.475C143.535 141.475 143.695 141.156 143.695 140.766C143.695 140.376 143.855 140.057 144.05 140.057C144.245 140.057 144.404 139.737 144.404 139.347C144.404 138.957 144.564 138.638 144.759 138.638C144.954 138.638 145.113 138.319 145.113 137.929C145.113 137.539 145.273 137.22 145.468 137.22C145.663 137.22 145.823 136.901 145.823 136.511C145.823 136.12 145.982 135.801 146.177 135.801C146.372 135.801 146.532 135.482 146.532 135.092C146.532 134.702 146.691 134.383 146.887 134.383C147.082 134.383 147.241 134.064 147.241 133.674C147.241 133.284 147.401 132.964 147.596 132.964C147.791 132.964 147.95 132.645 147.95 132.255C147.95 131.865 148.11 131.546 148.305 131.546C148.5 131.546 148.66 131.227 148.66 130.837C148.66 130.447 148.819 130.128 149.014 130.128C149.209 130.128 149.369 129.808 149.369 129.418C149.369 129.028 149.528 128.709 149.723 128.709C149.918 128.709 150.078 128.39 150.078 128C150.078 127.61 150.238 127.291 150.433 127.291C150.628 127.291 150.787 126.972 150.787 126.581C150.787 126.191 150.947 125.872 151.142 125.872C151.337 125.872 151.496 125.553 151.496 125.163C151.496 124.773 151.656 124.454 151.851 124.454C152.046 124.454 152.206 124.135 152.206 123.745C152.206 123.354 152.365 123.035 152.56 123.035C152.755 123.035 152.915 122.716 152.915 122.326C152.915 121.936 153.074 121.617 153.27 121.617C153.465 121.617 153.624 121.298 153.624 120.908C153.624 120.518 153.784 120.198 153.979 120.198C154.174 120.198 154.333 119.879 154.333 119.489C154.333 119.099 154.493 118.78 154.688 118.78C154.883 118.78 155.043 118.461 155.043 118.071C155.043 117.681 155.202 117.362 155.397 117.362C155.592 117.362 155.752 117.042 155.752 116.652C155.752 116.262 155.911 115.943 156.106 115.943C156.301 115.943 156.461 115.624 156.461 115.234C156.461 114.844 156.621 114.525 156.816 114.525C157.011 114.525 157.17 114.206 157.17 113.815C157.17 113.425 157.33 113.106 157.525 113.106C157.72 113.106 157.879 112.787 157.879 112.397C157.879 112.007 158.039 111.688 158.234 111.688C158.429 111.688 158.589 111.369 158.589 110.979C158.589 110.589 158.748 110.269 158.943 110.269C159.138 110.269 159.298 109.95 159.298 109.56C159.298 109.17 159.457 108.851 159.652 108.851C159.848 108.851 160.007 108.532 160.007 108.142C160.007 107.752 160.167 107.433 160.362 107.433C160.557 107.433 160.716 107.113 160.716 106.723C160.716 106.333 160.876 106.014 161.071 106.014C161.266 106.014 161.426 105.695 161.426 105.305C161.426 104.915 161.585 104.596 161.78 104.596C161.975 104.596 162.135 104.276 162.135 103.886C162.135 103.496 162.294 103.177 162.489 103.177C162.684 103.177 162.844 102.858 162.844 102.468C162.844 102.078 163.004 101.759 163.199 101.759C163.394 101.759 163.553 101.12 163.553 100.34V98.9219H110.007C74.5461 98.9219 56.461 99.0416 56.461 99.2765Z" fill="#FCCC04"/>
</svg>
