<?xml version="1.0" encoding="iso-8859-1"?>
<!-- Uploaded to: SVG Repo, www.svgrepo.com, Generator: SVG Repo Mixer Tools -->
<svg version="1.1" id="Layer_1" xmlns="http://www.w3.org/2000/svg" xmlns:xlink="http://www.w3.org/1999/xlink" 
	 viewBox="0 0 512 512" xml:space="preserve">
<rect y="100.174" style="fill:#E07188;" width="512" height="178.087"/>
<rect x="128" y="100.174" style="fill:#ECB45C;" width="384" height="178.087"/>
<rect x="256" y="100.174" style="fill:#EFC27B;" width="256" height="178.087"/>
<rect x="384" y="100.174" style="fill:#F8E99B;" width="128" height="178.087"/>
<polygon style="fill:#F8F8F9;" points="456.348,189.222 405.658,138.506 405.658,172.522 55.652,172.522 55.652,205.913 
	405.658,205.913 405.658,239.924 "/>
<polygon style="fill:#E07188;" points="44.522,289.391 0,333.913 0,411.826 89.043,411.826 89.043,333.913 "/>
<polygon style="fill:#F8E99B;" points="467.478,289.391 422.957,333.913 422.957,411.826 512,411.826 512,333.913 "/>
<polygon style="fill:#EDEDED;" points="456.348,189.222 405.658,138.506 405.658,172.522 256,172.522 256,205.913 405.658,205.913 
	405.658,239.924 "/>
</svg>